<svg xmlns="http://www.w3.org/2000/svg" version="1.1" xmlns:xlink="http://www.w3.org/1999/xlink" width="544" height="400"><svg width="544" height="400" viewBox="0 0 544 400" fill="none" xmlns="http://www.w3.org/2000/svg">
<path d="M37.3386 89.7773L22.3386 100.277V336.277L514.339 340.777L509.839 93.7773L505.339 78.2773H490.839V63.7773H464.339L460.839 37.7773L387.339 54.7773L323.339 78.2773L270.839 106.277L220.839 78.2773L138.839 51.2773L86.8386 40.7773L82.3386 63.7773H57.8386L52.8386 73.7773L37.3386 80.7773V89.7773Z" fill="#BFD0FF" stroke="black"></path>
<path d="M420.339 347.541C386.007 347.549 352.176 347.598 318.345 347.505C314.59 347.495 311.873 348.531 309.162 351.307C288.924 372.036 255.504 371.984 235.326 351.144C232.408 348.13 229.404 347.468 225.581 347.472C158.252 347.541 90.923 347.539 23.5937 347.544C16.0338 347.544 16.0203 347.521 16.0194 339.888C16.0097 259.726 16.0035 179.564 16 99.4024C15.9997 92.1739 16.0206 91.924 23.0435 92.1785C27.9395 92.3559 30.2487 91.2778 30.1928 85.6517C30.1108 77.3923 34.2758 73.3294 42.5277 71.9284C50.319 70.6057 50.172 71.4931 49.9544 63.3459C49.855 59.62 51.4261 58.1118 54.9275 58.2714C61.2469 58.5594 67.5858 58.6821 73.8728 59.3107C77.1514 59.6384 78.0292 58.4815 77.9909 55.5334C77.9149 49.7016 78.125 43.8641 77.9558 38.0365C77.8544 34.5471 79.4453 33.6734 82.5363 34.0997C145.295 42.7544 205.324 59.9656 260.334 92.126C268.998 97.1907 275 97.7521 284.097 92.4074C328.286 66.4456 376.131 49.8097 426.364 40.0239C438.102 37.7371 450.003 36.293 461.808 34.3337C465.294 33.7551 466.772 34.842 466.679 38.4498C466.545 43.6123 466.851 48.7897 466.62 53.945C466.448 57.773 467.561 59.4482 471.694 59.0687C477.159 58.5668 482.67 58.582 488.159 58.3209C492.703 58.1048 495.252 59.8528 494.543 64.749C493.892 69.2508 495.633 71.2851 500.275 71.9551C510.139 73.3792 513.429 76.7322 514.34 86.989C514.753 91.6409 516.677 92.6572 520.619 92.2199C521.606 92.1103 522.62 92.2663 523.616 92.2031C527.117 91.9808 529.04 93.3154 528.67 97.1001C528.573 98.0901 528.67 99.0985 528.669 100.098C528.668 180.094 528.668 260.089 528.663 340.084C528.662 347.514 528.649 347.532 521.332 347.534C487.835 347.542 454.337 347.539 420.339 347.541ZM88.5661 120.777C88.5603 167.426 88.6086 214.075 88.4584 260.723C88.4446 264.998 89.7027 267.021 93.9523 267.87C105.861 270.248 117.551 273.544 129.241 276.83C175.41 289.806 220.026 306.58 261.659 330.703C263.023 331.494 264.229 332.906 266.409 332.405C267.369 330.487 267.011 328.3 267.011 326.202C267.026 255.396 266.989 184.589 267.09 113.783C267.096 109.831 265.933 107.461 262.468 105.368C214.252 76.2442 161.963 58.3661 106.706 48.6255C100.894 47.601 95.1137 45.92 88.565 46.6946C88.565 71.2054 88.565 95.4913 88.5661 120.777ZM418.731 52.3692C370.52 62.7841 324.959 80.0003 282.451 105.172C278.775 107.349 277.572 109.842 277.579 113.967C277.691 185.262 277.665 256.558 277.723 327.854C277.724 329.529 276.965 331.474 278.671 333.021C285.438 329.306 292.068 325.479 298.861 321.967C345.713 297.751 395.211 280.875 446.458 268.849C457.42 266.276 456.103 268.002 456.111 257.138C456.159 188.508 456.113 119.877 456.076 51.2469C456.075 49.6304 456.517 47.9025 455.087 46.0675C443.239 47.2498 431.406 49.7747 418.731 52.3692ZM96.0914 279.209C92.2063 278.312 88.3617 277.088 84.4258 276.598C79.2829 275.958 77.8446 273.545 77.859 268.376C78.0386 203.905 77.9667 139.433 77.9581 74.9621C77.958 73.7961 77.9268 72.6299 77.9386 71.4641C77.963 69.0602 76.9033 67.7855 74.3897 67.6342C70.4058 67.3944 66.4275 67.0363 62.4542 66.6519C59.063 66.3237 57.5377 67.6489 57.6918 71.1829C57.9818 77.8353 58.1952 84.4966 58.2057 91.1546C58.306 154.626 58.3563 218.098 58.423 281.569C58.4309 289.099 58.4426 289.046 66.1232 289.922C94.066 293.109 121.799 297.56 149.268 303.641C173.914 309.096 198.397 315.16 222.547 322.56C182.355 303.236 140.249 289.508 96.0914 279.209ZM391.444 295.005C368.877 302.565 346.537 310.687 325.318 321.6C332.104 319.927 338.768 317.915 345.466 316.025C389.092 303.715 433.457 295.15 478.46 289.822C486.117 288.916 486.114 288.854 486.116 281.086C486.134 212.951 486.15 144.817 486.167 76.6828C486.169 66.3758 486.169 66.3771 476.098 67.3899C475.435 67.4565 474.769 67.4855 474.104 67.5205C466.706 67.9103 466.696 67.9096 466.696 75.5659C466.698 140.035 466.662 204.505 466.802 268.974C466.812 273.387 465.683 275.493 461.145 276.437C437.836 281.283 414.897 287.577 391.444 295.005ZM161.251 314.991C156.731 313.865 152.232 312.654 147.69 311.627C118.31 304.985 88.5789 300.535 58.6302 297.457C50.0095 296.57 50.0096 296.558 50.0088 288.058C50.0023 220.605 50.0068 153.151 49.9413 85.6978C49.9393 83.5882 51.0317 80.5525 47.77 79.8365C44.7737 79.1787 41.6382 79.657 39.5237 82.1875C37.8677 84.1694 37.7939 86.814 37.7399 89.3232C37.0518 121.282 36.2994 153.239 35.7214 185.2C35.1856 214.834 34.8537 244.471 34.3925 274.106C34.3356 277.766 33.9033 281.42 33.8743 285.078C33.7981 294.687 33.8485 304.297 33.8485 314.095C78.7426 307.065 122.99 311.263 167.561 316.873C165.691 315.365 163.693 315.866 161.251 314.991ZM510.455 302.388C509.747 259.748 509.045 217.109 508.33 174.469C507.877 147.486 507.427 120.502 506.906 93.5202C506.852 90.7052 506.534 87.8553 505.963 85.0992C505.026 80.5743 501.323 79.6681 497.523 79.7171C493.066 79.7747 494.838 83.4764 494.613 85.7751C494.353 88.4153 494.561 91.1011 494.561 93.7672C494.571 158.585 494.585 223.403 494.585 288.22C494.586 296.366 494.569 296.504 486.656 297.364C456.714 300.618 426.963 305.042 397.548 311.581C393.653 312.447 389.758 313.315 385.879 314.251C382.256 315.126 378.656 316.093 375.045 317.019C420.083 311.19 464.989 306.792 510.333 314.388C511.37 310.533 510.888 306.912 510.455 302.388ZM107.081 319.285C85.2759 317.785 63.5189 318.59 41.7973 320.726C37.3059 321.168 34.6886 323.699 34.0332 329.149C85.7803 329.149 137.133 329.149 189.734 329.149C161.902 323.984 135.121 320.383 107.081 319.285ZM475.515 318.697C437.978 318.333 365.729 324.901 356.524 329.059C406.868 329.059 458.474 329.059 510.174 329.059C509.722 323.74 507.247 321.436 502.786 321.056C494.006 320.309 485.232 319.505 475.515 318.697Z" fill="black"></path>
<path d="M197.031 153.688C205.398 173.971 214.328 193.617 222.148 214.429C216.165 215.719 210.761 215.235 205.385 214.88C203.875 214.78 203.338 213.38 202.835 212.102C201.68 209.161 200.036 206.334 199.385 203.29C198.231 197.902 195.383 196.186 189.921 196.488C181.127 196.974 172.285 196.741 163.468 196.593C160.175 196.538 158.053 197.531 157.13 200.827C156.684 202.419 156.064 204.004 155.256 205.443C153.505 208.559 153.957 213.746 150.273 214.697C145.135 216.022 139.528 215.657 133.879 214.746C134.15 210.842 135.88 207.928 137.123 204.947C147.177 180.849 156.942 156.629 167.62 132.793C169.226 129.208 171.159 127.772 175.112 127.917C188.278 128.399 185.019 126.013 190.445 138.186C192.679 143.197 194.734 148.288 197.031 153.688ZM188.351 180.688C190.42 179.298 189 177.7 188.476 176.31C186.665 171.507 184.839 166.701 182.76 162.01C181.219 158.535 180.442 154.626 177.452 151.233C173.097 161.057 168.99 170.343 165.627 180.844C173.485 180.844 180.552 180.844 188.351 180.688Z" fill="black"></path>
<path d="M404.174 147.87C407.676 163.479 403.882 175.012 393.016 182.233C387.594 185.837 381.429 187.214 375.033 187.487C370.38 187.686 365.697 187.778 361.053 187.493C356.716 187.227 354.636 188.226 355.117 193.204C355.628 198.483 355.137 203.851 355.274 209.176C355.373 213.03 354.187 214.801 349.863 214.788C338 214.752 338.001 214.941 338.004 202.957C338.009 179.98 338.133 157.002 337.917 134.027C337.872 129.302 339.544 127.897 343.986 128.082C356.279 128.593 368.633 127.157 380.881 128.939C392.139 130.578 400.37 136.241 404.174 147.87ZM388.336 157.781C388.392 152.061 386.121 147.428 380.635 145.623C372.366 142.903 363.805 143.254 355.1 144.369C355.1 152.552 355.166 160.183 355.065 167.811C355.027 170.707 356.011 172.143 359.082 172.072C364.062 171.956 369.05 172.144 374.029 171.992C382.786 171.723 387.35 167.383 388.336 157.781Z" fill="black"></path>
</svg><style>@media (prefers-color-scheme: light) { :root { filter: none; } }
@media (prefers-color-scheme: dark) { :root { filter: none; } }
</style></svg>